<?xml version="1.0" encoding="UTF-8"?>
<svg id="_Шар_2" data-name="Шар 2" xmlns="http://www.w3.org/2000/svg" viewBox="0 0 1377.2 459.57">
  <defs>
    <style>
      .cls-1 {
        fill: #0a1971;
        stroke-width: 0px;
      }
    </style>
  </defs>
  <g id="_Шар_1-2" data-name="Шар 1">
    <path class="cls-1" d="M189.66,229.96c0,72.69,0,145.39,0,218.08,0,1.25-.08,2.5,0,3.75.2,2.83-1.03,3.49-3.64,2.78-9.74-2.65-19.7-4.64-29.24-7.88-49.18-16.73-88.34-46.83-117.52-89.74-18.74-27.55-30.57-57.93-35.86-90.87-2.22-13.84-3.92-27.69-3.29-41.74,1.13-24.99,5.57-49.37,14.37-72.81,15.99-42.6,42.28-77.54,78.74-104.83,22.56-16.88,47.52-28.86,74.43-36.86,6.33-1.88,12.86-3.08,19.34-4.37.72-.14,2.14,1.06,2.51,1.94.45,1.06.12,2.45.12,3.7,0,72.94,0,145.89,0,218.83ZM89.12,152.11c-.43-2.1-.54-3.16-.86-4.15-1.15-3.56-2.28-7.14-3.59-10.64-.89-2.37-.38-4,1.75-5.42,3.11-2.08,6.12-4.32,9.07-6.63.95-.74,1.58-1.9,2.88-3.53-2.24-.28-3.54-.56-4.86-.58-3.37-.07-6.75-.18-10.11.02-2.9.17-4.35-1.09-5.1-3.77-1.1-3.97-2.32-7.9-3.63-11.8-.31-.92-1.18-1.65-1.79-2.46-.66.82-1.64,1.54-1.94,2.47-1.16,3.68-2.2,7.41-3.11,11.17-.75,3.12-2.32,4.64-5.76,4.39-3.73-.27-7.49-.11-11.23.01-.74.02-1.87.56-2.07,1.13-.19.54.39,1.67.96,2.13,2.52,2.04,5.14,3.97,7.76,5.88,5.08,3.7,5.04,3.67,2.96,9.8-1.21,3.56-2.25,7.19-3.36,10.78.32.24.65.47.97.71,1.25-.6,2.6-1.07,3.73-1.84,2.67-1.84,5.33-3.72,7.83-5.78,2.3-1.88,4.3-2,6.66-.07,2.61,2.13,5.39,4.04,8.18,5.93,1.13.76,2.47,1.21,4.64,2.25ZM53.31,341.01c.32.23.64.46.96.69,1.34-.71,2.75-1.31,4-2.16,2.78-1.9,5.55-3.82,8.17-5.93,2.12-1.71,3.91-1.64,6,.03,2.63,2.09,5.39,4.04,8.17,5.93,1.23.84,2.66,1.38,4.19,2.15.24-.97.47-1.36.39-1.66-.99-3.47-1.96-6.95-3.07-10.38-2.01-6.24-2.03-6.19,3.35-9.96,3.09-2.17,6.09-4.45,9.14-6.68-.13-.39-.26-.79-.38-1.18-1.22-.27-2.44-.73-3.67-.77-3.62-.11-7.24-.21-10.85,0-2.94.17-4.33-1.16-5.07-3.8-1.01-3.6-2.12-7.17-3.28-10.73-.31-.94-.98-1.77-1.94-3.45-1.12,2.26-1.95,3.6-2.47,5.06-1.17,3.29-2.26,6.61-3.22,9.96-.62,2.16-1.86,2.99-4.08,2.92-3.74-.11-7.49-.09-11.23.04-1.29.04-2.56.58-3.83.9-.04.37-.08.75-.12,1.12,2.25,1.71,4.47,3.46,6.74,5.13,8.72,6.41,7.51,3.98,4.48,14.44-.8,2.78-1.58,5.56-2.37,8.34ZM126.1,406.5l1.22.83c1.15-.61,2.37-1.11,3.44-1.85,2.77-1.92,5.58-3.8,8.14-5.97,2.36-2,4.25-1.85,6.55.09,2.56,2.17,5.36,4.08,8.13,5.99,1.03.71,2.27,1.1,4.24,2.02-.31-2-.36-3.07-.66-4.06-1.04-3.46-2.05-6.94-3.31-10.33-.97-2.61-.64-4.4,1.85-5.99,3.16-2,6.15-4.27,9.07-6.6.72-.58.91-1.82,1.35-2.76-.88-.32-1.76-.9-2.66-.93-3.86-.11-7.74-.14-11.6-.02-2.4.07-3.67-.96-4.34-3.19-1.07-3.58-2.19-7.16-3.48-10.66-.38-1.01-1.44-1.77-2.19-2.65-.61.85-1.47,1.62-1.8,2.57-1.19,3.41-2.27,6.87-3.26,10.34-.71,2.5-2.06,3.75-4.82,3.61-3.61-.18-7.24-.15-10.85-.03-1.13.04-2.23.64-3.35.99.7,1.07,1.2,2.38,2.13,3.16,2.3,1.9,4.66,3.83,7.27,5.25,3.74,2.03,4.22,4.53,2.66,8.3-1.58,3.82-2.52,7.9-3.74,11.87ZM69.92,220.56c-.09-.44-.17-.88-.26-1.31-1.24-.26-2.47-.7-3.71-.75-2.99-.11-6.01-.21-8.99.02-3.57.27-5.5-.91-6.34-4.63-.92-4.05-2.58-7.93-3.92-11.89-.37-.04-.74-.09-1.11-.13-.77,1.31-1.74,2.54-2.26,3.94-1.16,3.16-2.19,6.38-3.08,9.63-.64,2.34-1.99,3.13-4.35,3.04-3.74-.14-7.5-.11-11.24.04-.97.04-1.91.79-2.87,1.21.61.84,1.07,1.87,1.85,2.49,2.24,1.79,4.48,3.64,6.96,5.07,3.82,2.2,4.65,4.86,2.88,8.97-1.52,3.54-2.27,7.41-3.35,11.13.31.21.62.43.93.64,1.16-.55,2.41-.97,3.46-1.69,2.78-1.91,5.56-3.83,8.17-5.96,2.05-1.67,3.7-1.96,5.88-.1,2.75,2.34,5.77,4.38,8.77,6.4.82.55,1.98.58,2.98.85.09-1.06.48-2.2.21-3.16-.93-3.36-1.86-6.76-3.22-9.97-1.25-2.95-.28-4.53,2.17-6.15,3.6-2.38,6.98-5.11,10.45-7.68ZM156.78,84.53c.37-.3.75-.6,1.12-.89-.13-.93-.13-1.89-.4-2.78-.95-3.1-1.74-6.29-3.06-9.23-1.53-3.41-.69-5.61,2.38-7.5,2.76-1.7,5.36-3.66,7.93-5.64.7-.54,1.04-1.55,1.55-2.34-.92-.45-1.83-1.27-2.77-1.3-3.87-.14-7.76.2-11.6-.15-1.34-.12-3.16-1.46-3.69-2.71-1.52-3.54-2.4-7.35-3.74-10.97-.32-.88-1.44-1.47-2.19-2.19-.59.73-1.43,1.37-1.71,2.2-1.14,3.3-2.31,6.61-3.09,10.01-.7,3.08-2.44,3.99-5.36,3.85-3.49-.17-6.99-.14-10.49-.05-.89.03-1.77.65-2.65.99.51.9.81,2.08,1.56,2.66,3.06,2.36,6.42,4.36,9.33,6.89,1,.87,1.63,3.04,1.34,4.37-.77,3.51-2.21,6.87-3.25,10.34-.35,1.17-.3,2.47-.44,3.71l.99.7c2.57-1.82,5.12-3.68,7.71-5.46,7.72-5.32,5.59-4.65,12.47-.16,2.75,1.79,5.37,3.77,8.05,5.66Z"/>
    <path class="cls-1" d="M335.14,290.84c-37.47,0-74.95,0-112.42,0-5.16,0-5.16-.03-5.16-5.11-.01-41.1-.03-82.19-.04-123.29q0-5.87,5.68-5.87c73.2,0,146.39,0,219.59,0,5.97,0,5.9.02,7.73,5.77,10.49,33.08,12.71,66.83,7.94,101.08-1.08,7.77-3.25,15.38-4.61,23.12-.6,3.43-2.2,4.45-5.54,4.43-21.23-.12-42.47-.09-63.7-.1-16.49,0-32.98,0-49.46,0v-.03Z"/>
    <path class="cls-1" d="M441.29,321.86c-1.34,3.19-2.17,5.51-3.26,7.69-15.99,32.16-38,59.46-66.45,81.39-22.45,17.31-47.2,30.32-74.51,38.24-24.36,7.07-49.14,11.11-74.59,10.27-4.94-.16-4.96-.13-4.96-5.06,0-42.58.04-85.17-.09-127.75-.01-3.82,1.14-4.86,4.9-4.86,71.31.1,142.61.08,213.92.08,1.34,0,2.69,0,5.04,0Z"/>
    <path class="cls-1" d="M435.24,125.68c-1.92.15-3.23.35-4.54.35-69.56.02-139.12,0-208.68.09-3.68,0-4.58-1.22-4.57-4.74.12-38.46.08-76.93.08-115.39,0-5.47.13-5.55,5.64-5.83,17.48-.9,34.54,2.27,51.61,5.34,17.16,3.08,33.64,8.41,49.52,15.53,38.71,17.35,70.48,43.22,94.8,78.03,5.07,7.25,9.48,14.97,14.15,22.49.69,1.11,1.15,2.37,1.98,4.14Z"/>
    <path class="cls-1" d="M865.74,93.69c1.07,1.19,1.51,1.98,2.18,2.38,11.74,7.09,19.09,18.11,26.26,29.27,6,9.35,11.87,18.78,17.77,28.19.77,1.23,1.35,2.57,2.3,4.38-1.58.28-2.61.61-3.64.62-9.12.05-18.23-.05-27.35.09-2.97.04-4.42-1.55-5.9-3.75-10.04-14.9-20.34-29.63-30.22-44.63-7.85-11.93-19.33-14.38-32.35-13.51-3.42.23-3.35,2.74-3.35,5.18,0,16.36.02,32.72.02,49.08,0,1.37-.06,2.75-.01,4.12.08,2.31-.89,3.47-3.3,3.46-7.62-.04-15.23-.02-22.85-.01-2.18,0-3.22-1.04-3.14-3.22.03-1-.01-2-.01-3,0-45.08,0-90.16,0-135.25,0-5.75,0-5.77,5.89-5.77,19.98-.01,39.97-.27,59.94.11,9.06.17,18.29.76,27.1,2.68,15.99,3.49,26.82,16.99,28.11,33.38.69,8.73-.35,17.13-4.56,25.05-5.73,10.74-15.28,16.04-26.41,19.28-1.97.58-3.95,1.15-6.47,1.88ZM856.43,72.88c5.6-.42,10.36-2.65,13.5-7.59,7.99-12.55.78-28.04-14.04-28.99-13.43-.86-26.94-.56-40.41-.77-2.78-.04-4.08,1.32-4.06,4.14.04,9.98.06,19.97-.01,29.95-.02,3,1.24,4.34,4.25,4.31,5.86-.07,11.73-.02,17.6-.02"/>
    <path class="cls-1" d="M919.04,335.57c-2,.13-3.33.28-4.66.29-8.37.02-16.75-.13-25.11.08-3.41.08-5.4-1.16-7.28-3.97-9.9-14.86-20.19-29.45-30.01-44.36-7.91-12.01-19.57-14.04-32.49-13.11-.92.07-2.1,1.52-2.5,2.58-.46,1.22-.23,2.71-.23,4.08,0,16.62.02,33.23,0,49.85,0,4.58-.33,4.85-4.93,4.86-6.75.01-13.49-.08-20.24.03-3.03.05-4.19-1.06-4.18-4.17.06-45.98.06-91.95,0-137.93,0-3,1.03-4.29,4.14-4.27,24.24.16,48.47.08,72.71.43,8.11.12,16.29,1.1,23.65,4.92,10.67,5.54,16.78,14.65,19.23,26.27,4.96,23.51-7.58,43.11-30.95,48.56-1.75.41-3.44,1.09-5.16,1.65-.15.38-.31.75-.46,1.13.75.44,1.5.87,2.25,1.31,9.13,5.45,15.85,13.32,21.55,22.05,7.92,12.12,15.52,24.45,23.24,36.7.45.72.74,1.54,1.44,3.03ZM839.59,213.39c0,.09,0,.17-.01.26-6.36,0-12.72.05-19.08-.03-2.52-.03-3.71,1.06-3.71,3.54,0,10.35-.02,20.7,0,31.05,0,2.38,1.02,3.71,3.63,3.63,13.95-.43,27.92-.5,41.85-1.33,9.56-.57,15.5-8.05,15.55-18.2.05-9.86-5.79-16.91-15.45-17.83-7.56-.72-15.18-.76-22.77-1.1Z"/>
    <path class="cls-1" d="M1214.85,107.63c.13-1.67.39-3.35.39-5.02.03-28.6.03-57.21.04-85.81,0-5.45.03-5.47,5.38-5.49,5.62-.02,11.25.18,16.86-.08,3.83-.18,4.93,1.27,4.92,4.99-.11,32.35-.05,64.7-.05,97.05,0,13.49-.12,26.98.07,40.47.05,3.82-1.23,5.03-4.97,4.9-6.61-.24-13.24-.24-19.85,0-3.47.13-5.48-1.23-7.25-4.08-15.59-25.28-31.29-50.49-46.95-75.72-2.76-4.45-5.52-8.91-8.22-13.41-.51-.86-.69-1.92-1.02-2.88-.61.4-1.22.8-1.83,1.21-.15,1.26-.44,2.52-.44,3.77,0,27.98.02,55.96.03,83.94,0,1-.09,2-.01,3,.25,3.03-1,4.26-4.13,4.17-5.99-.17-11.99-.04-17.98-.05-4.8-.01-5.02-.21-5.02-5.13-.01-37.72-.01-75.44-.02-113.16,0-8.12.1-16.24-.04-24.36-.05-3.3.97-4.77,4.51-4.67,6.86.2,13.74.16,20.61.01,2.72-.06,4.38.98,5.77,3.24,18.45,29.97,36.96,59.9,55.48,89.83.76,1.22,1.67,2.35,2.51,3.52.4-.07.81-.15,1.21-.22Z"/>
    <path class="cls-1" d="M1154.62,242.08c-.07,1.57-.21,3.14-.21,4.71-.01,27.98,0,55.95-.01,83.93,0,5.14-.02,5.15-5.21,5.16-5.87,0-11.74-.09-17.61.04-2.93.07-4.26-.75-4.26-4,.08-46.09.07-92.17,0-138.26,0-3.11,1.17-4.2,4.2-4.14,6.99.13,14-.15,20.97.18,1.75.08,4.11,1.41,5.03,2.89,18.52,29.63,36.87,59.37,55.27,89.07.84,1.36,1.91,2.57,2.87,3.86.37-.14.74-.28,1.11-.43.13-1.28.36-2.56.36-3.85.04-28.85.05-57.7.05-86.55,0-4.91.15-5.13,4.97-5.15,5.62-.02,11.24-.02,16.86,0,5.07.02,5.31.25,5.31,5.26.02,28.85.02,57.7.02,86.55,0,16.61-.09,33.22.06,49.83.03,3.62-1.2,4.84-4.76,4.74-6.99-.2-13.99-.16-20.98-.02-2.86.06-4.52-1.08-6-3.48-15.54-25.17-31.19-50.27-46.8-75.39-2.63-4.24-5.22-8.51-7.89-12.73-.62-.98-1.5-1.8-2.26-2.69-.37.15-.74.3-1.12.45Z"/>
    <path class="cls-1" d="M1055.56,81.11c-.43,18.49-2.2,32.38-9.09,45.19-10.01,18.62-25.49,29.83-46.2,33.41-17.81,3.08-35.38,2.25-51.95-6-17.76-8.84-28.86-23.16-33.54-42.25-5.24-21.38-5.2-42.9,3.58-63.27,9.64-22.38,27.07-35.68,51.66-38.72,14.83-1.83,29.5-1.18,43.5,4.51,20.84,8.47,33.63,24.17,38.87,45.79,2.02,8.31,2.55,16.98,3.17,21.33ZM1025.53,84.67c-.63-5.7-.81-11.49-1.96-17.08-3.64-17.69-13.39-29.68-31.9-33.45-16.41-3.35-34.98,3.79-42.32,18.01-10.55,20.41-10.75,41.79-1.2,62.46,7.6,16.45,22,22.84,39.78,21.3,16.15-1.4,26.86-10.22,32.84-25.12,3.36-8.38,4.25-17.15,4.76-26.1Z"/>
    <path class="cls-1" d="M782.76,335.45c-1.75.19-2.82.41-3.9.41-9.99.02-19.99-.05-29.98.05-2.61.03-4.05-1.08-5.32-3.25-12.06-20.56-24.2-41.08-36.33-61.6-2.3-3.89-2.85-3.97-5.98-.79-5.96,6.05-11.81,12.2-17.89,18.13-2.36,2.3-3.14,4.8-3.11,8.01.13,11.74-.05,23.48.12,35.22.05,3.31-1.1,4.38-4.33,4.3-6.74-.18-13.5-.23-20.23.01-3.75.13-5.01-1.11-4.98-4.91.14-19.61.05-39.22.05-58.83,0-25.73,0-51.47.02-77.2,0-5.26.18-5.43,5.52-5.44,6.25-.02,12.49-.02,18.74,0,5.05.02,5.15.13,5.15,5.34,0,17.74,0,35.48.02,53.21,0,1.57.23,3.14.43,5.63,1.72-1.48,2.89-2.3,3.83-3.33,17.57-18.96,35.15-37.9,52.62-56.95,2.57-2.8,5.28-4.09,9.13-3.99,9.11.24,18.24.08,27.35.08,1.47,0,2.94,0,5.63,0-1.55,2.08-2.3,3.38-3.32,4.43-15.92,16.39-31.8,32.82-47.88,49.06-2.62,2.64-2.48,4.46-.59,7.34,17.91,27.22,35.7,54.51,53.5,81.8.53.81.92,1.73,1.72,3.27Z"/>
    <path class="cls-1" d="M1357.39,54.15c-3.62,0-7.26.2-10.85-.11-1.29-.11-3.32-1.23-3.58-2.25-4.15-16.37-15.1-19.03-27.37-19.13-6.29-.05-12.42,1-18.04,4.17-9.42,5.31-9.84,16.44-.19,21.36,6.81,3.47,14.33,5.78,21.75,7.79,12.05,3.26,24.34,5.69,35.55,11.47,13.78,7.11,21.22,18.55,22.38,33.97,1.83,24.34-13.71,43.47-38.38,47.96-14.77,2.69-29.61,2.95-44.22-.95-19.11-5.1-30.85-17.66-35.52-36.74-2.49-10.2-2.27-10.27,8.24-11.45,4.84-.55,9.7-.95,14.51-1.63,2.8-.4,4,.52,4.66,3.31,2.62,11.13,8.32,19.93,19.99,23.07,10.26,2.76,20.6,2.66,30.32-2.2,8.85-4.43,12.77-13.85,9.8-22.21-1.77-4.98-5.8-7.57-10.35-9-9.51-3-19.19-5.47-28.78-8.22-11.78-3.37-23.62-6.7-32.79-15.52-21.1-20.28-13.84-54.7,13.98-64.61,19.61-6.99,39.69-6.91,58.96,1.07,15.49,6.42,23.53,19.07,24.97,35.83.2,2.38-.99,3.08-3.08,3.16-3.99.15-7.98.36-11.97.55,0,.1,0,.21,0,.31Z"/>
    <path class="cls-1" d="M522.54,84.98c0-22.36-.04-44.71.02-67.07.02-7.91.5-6.41,6.26-6.42,32.72-.1,65.44-.09,98.17-.25,3.52-.02,5.01,1.03,4.87,4.67-.19,5.11-.19,10.24,0,15.36.12,3.31-1.19,4.31-4.4,4.29-22.98-.1-45.96-.05-68.94-.05-6.78,0-6.82.04-6.83,6.96,0,7.24-.03,14.49,0,21.73.02,4.42.58,4.98,4.99,4.99,21.36.02,42.71,0,64.07.02,5.34,0,5.35.03,5.36,5.49.01,4.75-.19,9.5.06,14.23.2,3.69-1.3,4.69-4.8,4.68-20.86-.12-41.71-.06-62.57-.05q-7.14,0-7.14,7.33c0,9.49-.02,18.98.02,28.48.02,4.42.52,4.9,5.02,4.91,24.1.02,48.21,0,72.31,0,5.53,0,5.55.04,5.56,5.71,0,4.75-.13,9.5.04,14.24.12,3.23-1.11,4.42-4.36,4.39-13.36-.11-26.73-.04-40.09-.04-20.86,0-41.71,0-62.57,0-4.93,0-5.1-.17-5.1-5.02-.01-22.86,0-45.71,0-68.57h.04Z"/>
    <path class="cls-1" d="M1262.28,262.74c0-22.61,0-45.23,0-67.84,0-5.15.19-5.34,5.21-5.35,32.73-.01,65.47-.01,98.2,0,5.23,0,5.38.18,5.39,5.57.01,4.62-.18,9.26.07,13.86.2,3.67-1.27,4.72-4.79,4.7-22.74-.11-45.48-.06-68.21-.06-1.12,0-2.25.01-3.37.02-2.26,0-3.5,1.02-3.5,3.4.02,8.75.03,17.49,0,26.24-.01,3.32,2.03,3.8,4.72,3.79,12.74-.05,25.49-.03,38.23-.03,9,0,17.99.1,26.99-.02,3.22-.05,4.46,1.07,4.31,4.36-.22,4.99-.04,9.99-.05,14.99-.01,4.68-.17,4.87-4.83,4.87-20.99.02-41.98,0-62.97,0-6.33,0-6.4.08-6.41,6.56,0,9.12,0,18.24,0,27.36,0,6.56.02,6.58,6.78,6.58,23.49,0,46.98,0,70.46.01,5.61,0,5.64.05,5.65,5.63,0,4.62-.18,9.25.06,13.87.19,3.66-1.28,4.7-4.8,4.69-26.49-.11-52.97-.06-79.46-.06-7.75,0-15.5-.14-23.24.05-3.5.09-4.52-1.25-4.51-4.6.1-22.86.05-45.73.05-68.59Z"/>
    <path class="cls-1" d="M763.26,113.99c-.17,6.14-1.43,12.46-3.41,18.29-5.24,15.41-17.18,23.65-32.42,26.95-15.43,3.34-31.09,3.02-46.46-.76-18.2-4.47-31.27-19.68-33-38.35-.92-9.94-1.44-19.94-1.53-29.92-.21-24.61-.07-49.21-.06-73.82,0-4.8.24-5.05,5.11-5.07,6.62-.03,13.25.13,19.86-.07,3.59-.11,4.82,1.2,4.8,4.78-.11,24.36-.08,48.72-.04,73.07.01,7.12.08,14.24.39,21.35.67,15.29,10.45,24.9,25.83,25.52,6.38.26,12.78.38,18.77-2.39,7.46-3.45,11.6-9.51,12.39-17.49.81-8.19,1.19-16.45,1.24-24.68.15-24.73.05-49.47.04-74.2q0-5.93,6.07-5.94c6.25,0,12.49.14,18.74-.03,3.4-.09,4.63,1.15,4.6,4.58-.12,16.36-.05,32.73-.05,49.09"/>
    <path class="cls-1" d="M924.34,334.97c3.43-8.75,6.76-17.2,10.06-25.67,14.37-36.84,28.63-73.72,43.16-110.49,4.26-10.77,1.62-9.14,13.43-9.26,5.62-.06,11.24.15,16.85-.06,3.36-.13,5.19,1.04,6.46,4.24,8.7,21.91,17.55,43.77,26.38,65.63,9.81,24.29,19.64,48.57,29.51,72.84,1.05,2.57.56,3.73-2.37,3.7-8.24-.07-16.48-.07-24.72-.02-2.38.02-3.57-1.09-4.37-3.24-3.21-8.65-6.64-17.22-9.79-25.89-1.14-3.15-2.89-4.54-6.33-4.52-16.98.12-33.96.12-50.94-.01-3.35-.03-4.94,1.39-5.99,4.36-3.13,8.81-6.36,17.6-9.77,26.31-.48,1.22-2.16,2.78-3.31,2.81-8.73.22-17.47.1-26.21.04-.45,0-.91-.33-2.04-.77ZM996.58,278.22c5.37,0,10.74.04,16.11-.01,4.26-.04,4.75-.74,3.28-4.65-5.72-15.17-11.46-30.34-17.25-45.49-.4-1.04-1.33-1.88-2.01-2.81-.7.92-1.68,1.75-2.07,2.79-5.72,15.44-11.35,30.92-17.05,46.37-.94,2.56-.35,3.83,2.51,3.81,5.49-.03,10.99,0,16.48-.02Z"/>
    <path class="cls-1" d="M549.52,241.4c0,15.61-.24,31.23.09,46.83.21,10.09,4.57,18.31,14.15,22.46,9.78,4.24,20.07,4.17,29.95.33,7.6-2.95,11.82-9.22,12.47-17.31.74-9.08,1.16-18.2,1.22-27.3.16-23.86.05-47.71.06-71.57,0-5.08.19-5.27,5.27-5.28,6.62-.02,13.24.08,19.86-.04,2.94-.05,4.28.86,4.26,4.06-.2,30.85-.07,61.7-.56,92.54-.12,7.52-1.32,15.26-3.48,22.46-4.84,16.07-17.04,24.65-32.77,27.94-15.81,3.3-31.99,3.43-47.51-1.27-15.68-4.75-26.71-15.14-30.05-31.8-1.61-8.03-2.52-16.33-2.62-24.52-.35-28.22-.15-56.45-.3-84.68-.02-3.62,1.24-4.86,4.79-4.75,6.24.19,12.49.05,18.73.05,5.88,0,5.92.03,5.92,5.76,0,15.36,0,30.73,0,46.09.17,0,.33,0,.5,0Z"/>
    <path class="cls-1" d="M1376.39,370.8v8.33h-858.01v-8.33h858.01Z"/>
    <path class="cls-1" d="M1078.89,262.77c0-22.74,0-45.48,0-68.21,0-4.94.06-4.99,5.04-5.01,6.62-.02,13.25.16,19.86-.07,3.68-.13,4.79,1.33,4.77,4.82-.09,21.11-.03,42.23-.03,63.34,0,24.11,0,48.22-.01,72.34,0,5.79-.13,5.88-5.82,5.88-6.25,0-12.49,0-18.74,0-5.08,0-5.1-.01-5.1-5.26,0-22.61,0-45.23,0-67.84h.03Z"/>
    <path class="cls-1" d="M1072.36,84.83c0-22.6,0-45.2,0-67.8,0-5.71.02-5.72,5.54-5.73,6.37-.01,12.74.15,19.1-.06,3.42-.11,4.67,1.1,4.61,4.52-.15,8.49-.04,16.98-.04,25.47,0,37.08,0,74.17,0,111.25,0,6.08-.02,6.09-5.93,6.09-5.99,0-11.99,0-17.98,0-5.18-.01-5.3-.11-5.3-5.19-.01-22.85,0-45.7,0-68.55Z"/>
    <path class="cls-1" d="M547.35,445.86c-4.45-6.7-8.57-12.91-13.24-19.95v30.37h-10.11v-46.93c3.39,0,6.7-.18,9.98.11.91.08,1.9,1.4,2.52,2.37,3.6,5.63,7.11,11.33,10.98,17.54,3.56-5.71,6.97-10.74,9.9-16.03,1.73-3.12,3.77-4.62,7.38-4.1,1.94.28,3.95.05,6.19.05v47.1h-9.84v-29.62c-.3-.1-.6-.2-.9-.3-4.15,6.26-8.3,12.52-12.86,19.39Z"/>
    <path class="cls-1" d="M638.23,426.98v29.32h-9.69v-46.94c3.24,0,6.56-.18,9.84.11.92.08,1.91,1.42,2.53,2.39,3.61,5.66,7.12,11.39,10.94,17.54,3.59-5.76,7.04-10.93,10.1-16.32,1.61-2.82,3.41-4.32,6.79-3.84,2.06.29,4.2.05,6.54.05v46.98h-9.81v-29.3c-.32-.13-.64-.27-.95-.4-4.17,6.29-8.34,12.57-12.8,19.3-4.45-6.71-8.6-12.96-12.74-19.21-.25.11-.5.21-.76.32Z"/>
    <path class="cls-1" d="M687.4,456.52v-47.22c2.31,0,4.49,0,6.68,0,5.74.03,11.48-.06,17.22.13,5.74.2,10.69,2.25,12.75,8.04,2.04,5.73.12,10.53-5.14,14.22,1.12.69,2.02,1.28,2.96,1.82,4.27,2.48,5.76,6.27,5.48,11.05-.27,4.56-2.42,7.93-6.51,9.68-2.7,1.15-5.71,2.06-8.62,2.17-8.1.29-16.21.1-24.81.1ZM697.45,447.25c5.26,0,10.32.2,15.35-.08,2.8-.16,4.46-2.09,4.37-5.08-.09-3.02-2.04-4.68-4.73-4.83-4.92-.27-9.87-.08-14.99-.08v10.06ZM697.42,428.2c4.4,0,8.38.21,12.33-.08,2.64-.19,4.76-1.66,4.83-4.72.07-3.03-1.8-4.74-4.54-4.93-4.15-.28-8.34-.07-12.63-.07v9.8Z"/>
    <path class="cls-1" d="M1071.33,409.59c8.84,0,17.45-.4,26,.13,6.74.42,11.59,5.29,12.82,11.32,1.52,7.44-1.09,13.67-7.29,17.36-.74.44-1.48.85-2.45,1.41,3.71,5.47,7.32,10.8,11.36,16.77-3.93,0-7.23.12-10.5-.08-.9-.06-1.98-.93-2.56-1.72-1.92-2.61-4.01-5.19-5.36-8.09-2.48-5.3-6.44-6.32-12.04-4.78v14.45h-9.98v-46.76ZM1081.22,418.46c0,4.25-.12,8.08.11,11.89.04.69,1.53,1.77,2.41,1.83,3.09.2,6.21.17,9.31-.03,4.53-.28,6.9-2.63,6.98-6.61.08-4.16-2.31-6.73-6.99-7.03-3.7-.24-7.44-.05-11.82-.05Z"/>
    <path class="cls-1" d="M874.43,408.49c14.26-.05,25.13,10.36,25.21,24.14.08,13.87-10.93,24.69-25.16,24.72-14.29.03-25-10.3-25.08-24.2-.08-14.07,10.62-24.61,25.03-24.66ZM874.5,447.87c8.3.01,14.35-6.27,14.36-14.9,0-8.59-6.47-15.29-14.66-15.19-7.96.1-14.12,6.53-14.21,14.84-.1,8.64,6.19,15.24,14.51,15.25Z"/>
    <path class="cls-1" d="M1168.26,432.67c.06,14-10.78,24.68-25.07,24.69-14.19,0-25.09-10.48-25.18-24.23-.09-13.9,10.83-24.58,25.18-24.63,14.31-.05,25,10.27,25.07,24.18ZM1128.82,432.93c.06,8.76,6.26,15.05,14.74,14.94,8.18-.11,14.21-6.62,14.09-15.21-.12-8.36-6.59-14.94-14.63-14.89-8.15.06-14.25,6.57-14.19,15.16Z"/>
    <path class="cls-1" d="M1277.7,432.7c.05,14-10.8,24.66-25.1,24.66-14.18,0-25.08-10.51-25.15-24.26-.07-13.9,10.86-24.57,25.21-24.6,14.31-.04,24.99,10.29,25.04,24.21ZM1238.27,432.93c.06,8.76,6.26,15.05,14.74,14.94,8.18-.11,14.21-6.62,14.09-15.21-.12-8.36-6.59-14.94-14.63-14.89-8.15.06-14.25,6.57-14.19,15.16Z"/>
    <path class="cls-1" d="M1329.59,456.53v-47.72c9.09.56,18.2.06,26.81,1.9,11.73,2.51,17.83,13.33,16.34,25.87-1.29,10.86-10.79,19.29-22.88,19.88-6.6.32-13.23.06-20.27.06ZM1339.91,447.21c3.38,0,6.48.2,9.55-.04,7.56-.58,12.62-5.95,12.86-13.4.27-8.09-4.25-14.05-11.9-15.1-3.38-.46-6.88-.08-10.52-.08v28.62Z"/>
    <path class="cls-1" d="M782.29,409.6c8.82,0,17.44-.43,25.99.14,6.78.45,11.66,5.47,12.68,11.43,1.35,7.91-1.07,13.58-7.39,17.3-.64.38-1.3.72-2.33,1.28,3.7,5.49,7.34,10.88,11.35,16.83-3.99,0-7.31.13-10.62-.09-.88-.06-1.9-1.01-2.48-1.81-2.04-2.83-3.91-5.78-5.86-8.69-3.45-5.17-4.46-5.54-11.48-4.03v14.34h-9.86v-46.69ZM792.32,431.88c.78.15,1.37.36,1.96.36,3.37,0,6.75.1,10.1-.15,4.09-.3,6.33-2.65,6.49-6.36.17-3.98-1.84-6.67-6.11-7.08-4.04-.39-8.15-.08-12.44-.08v13.3Z"/>
    <path class="cls-1" d="M736.56,456.27v-46.74h35.17v8.74h-24.88v9.85h21.87v8.92h-21.83v10.39h25.12v8.85h-35.46Z"/>
    <path class="cls-1" d="M1009.83,447.43v8.97h-35.51v-46.74h35.21v8.53h-24.88v9.93h21.94v8.94h-21.93v10.36h25.17Z"/>
    <path class="cls-1" d="M618.37,456.41h-35.47v-46.77h35.19v8.68h-24.95v9.85h21.93v8.92h-21.88v10.39h25.18v8.93Z"/>
    <path class="cls-1" d="M1188.05,428.1c6.22,0,11.93.1,17.63-.12.71-.03,1.9-1.74,1.93-2.71.19-5.1.09-10.21.09-15.64h9.76v46.72h-9.75c0-4.62,0-9.18,0-13.75q0-5.17-5.33-5.18c-4.59,0-9.18,0-14.13,0v18.9h-10.11v-46.8h9.92v18.58Z"/>
    <path class="cls-1" d="M1019.06,409.5h10.18c0,1.3,0,2.49,0,3.68,0,7.37-.04,14.74.02,22.11.06,8.54,3.45,12.55,10.42,12.52,6.84-.03,10.11-3.93,10.17-12.33.06-8.48.01-16.96.01-25.81h10.27c0,2.34,0,4.78,0,7.23,0,6.87.13,13.74-.07,20.61-.23,7.85-2.84,14.67-10.67,17.82-8.35,3.36-16.66,3.11-24.11-2.59-4.25-3.26-5.98-8.09-6.13-13.19-.29-9.85-.08-19.71-.08-30.05Z"/>
    <path class="cls-1" d="M941.86,438.07c-6.55,0-12.77.12-18.99-.05-2.75-.07-3.77.73-3.65,3.59.21,4.83.06,9.68.06,14.75h-9.87v-46.76h35.53v8.67h-25.6c0,3.33-.16,6.27.13,9.17.06.58,1.81,1.39,2.81,1.42,5.24.14,10.48.07,15.72.07,1.21,0,2.43,0,3.86,0v9.15Z"/>
    <path class="cls-1" d="M1297.46,447.26h23.5v9.09h-33.44v-46.75h9.93v37.66Z"/>
  </g>
</svg>